<svg width="192" height="40" viewBox="0 0 192 40" fill="none" xmlns="http://www.w3.org/2000/svg">
    <g clip-path="url(#clip0_6269_1876)">
        <path fill-rule="evenodd" clip-rule="evenodd" d="M19.6931 0.382342C15.0953 1.30066 10.4974 4.07831 8.16306 8.08039C6.93696 10.2118 5.82875 14.2706 7.23169 16.8555C9.566 21.1977 15.331 21.1183 18.2548 18.1933C19.2216 17.2183 19.7167 16.2886 20.483 14.9395C21.9685 12.3319 23.5836 10.4726 25.5171 8.98736C29.4784 5.96031 35.4792 4.45243 39.3579 8.60191L40.643 10.1551C39.3108 7.58154 37.6367 6.06234 35.5264 4.11232C33.9701 2.93323 32.296 1.92421 30.2683 1.20997C29.4548 0.915203 28.6885 0.677104 27.8043 0.473034C25.1399 -0.0938219 22.3693 -0.161845 19.6931 0.382342Z" fill="#30D5C8"/>
        <path fill-rule="evenodd" clip-rule="evenodd" d="M39.4521 9.13481C38.1789 7.96707 37.3772 7.23014 35.4084 6.6973C32.7086 5.98303 29.997 6.87868 27.6745 8.12579C26.9671 8.51126 26.189 8.98742 25.6113 9.41825C26.2715 9.65633 27.4269 10.2912 27.9456 10.586C29.4429 11.425 30.8105 12.6267 31.8362 13.9645C32.8618 15.3023 33.9583 19.2591 38.0492 18.4314C39.5347 18.1367 40.5839 17.3884 41.1852 16.164C42.2816 13.9985 41.1498 10.6994 39.4521 9.13481Z" fill="#2B4C81"/>
        <path fill-rule="evenodd" clip-rule="evenodd" d="M21.9547 39.6034C26.5526 38.6851 31.1505 35.9074 33.4848 31.9053C34.7109 29.7739 35.8191 25.7151 34.4162 23.1302C32.0819 18.788 26.3168 18.8674 23.393 21.7924C22.4263 22.7674 21.9312 23.6971 21.1648 25.0462C19.6794 27.6538 18.0642 29.5131 16.1308 30.9984C12.1695 34.0254 6.16866 35.5333 2.28994 31.3838L1.00488 29.8306C2.3371 32.4042 4.0112 33.9234 6.1215 35.8734C7.67772 37.0525 9.35182 38.0615 11.3796 38.7758C12.1931 39.0705 12.9594 39.3086 13.8436 39.5127C16.508 40.0795 19.2785 40.1476 21.9547 39.6034Z" fill="#30D5C8"/>
        <path fill-rule="evenodd" clip-rule="evenodd" d="M2.19594 30.851C3.46921 32.0187 4.27089 32.7557 6.23972 33.2885C8.93951 34.0028 11.6511 33.1071 13.9736 31.86C14.681 31.4745 15.4591 30.9984 16.0368 30.5675C15.3765 30.3295 14.2212 29.6946 13.7024 29.3998C12.2052 28.5608 10.8376 27.3591 9.81193 26.0213C8.78625 24.6835 7.68982 20.7267 3.59888 21.5544C2.11342 21.8491 1.06415 22.5974 0.462892 23.8218C-0.633521 25.9873 0.498255 29.2864 2.19594 30.851Z" fill="#2B4C81"/>
    </g>
    <g clip-path="url(#clip1_6269_1876)">
        <path d="M47.21 23.5608C47.21 24.6432 47.4181 25.6592 47.8345 26.6088C48.2509 27.5583 48.8139 28.3892 49.5236 29.1013C50.2333 29.8135 51.0614 30.3784 52.0076 30.7962C52.9539 31.214 53.9665 31.4229 55.0453 31.4229H62.8522V30.1126H55.0453C54.1368 30.1126 53.2899 29.9416 52.5044 29.5998C51.719 29.258 51.0282 28.7879 50.4321 28.1897C49.8359 27.5916 49.3675 26.8984 49.0268 26.1103C48.6862 25.3222 48.5158 24.4723 48.5158 23.5608C48.5158 22.6682 48.6862 21.8231 49.0268 21.0255C49.3675 20.2279 49.8359 19.5347 50.4321 18.946C51.0282 18.3573 51.719 17.892 52.5044 17.5502C53.2899 17.2084 54.1368 17.0375 55.0453 17.0375H62.8522V15.7271H55.0453C53.9665 15.7271 52.9539 15.9312 52.0076 16.3395C51.0614 16.7478 50.2333 17.3081 49.5236 18.0202C48.8139 18.7324 48.2509 19.5632 47.8345 20.5128C47.4181 21.4623 47.21 22.4783 47.21 23.5608ZM79.4028 22.9625L80.6803 23.4468V31.4229H79.4028V22.9625ZM72.9018 31.4229C71.823 31.4229 70.8152 31.2188 69.8783 30.8105C68.9415 30.4022 68.1183 29.8419 67.4085 29.1298C66.6988 28.4176 66.1405 27.5916 65.7336 26.6515C65.3267 25.7115 65.1232 24.7002 65.1232 23.6177C65.1232 22.5353 65.3267 21.5193 65.7336 20.5697C66.1405 19.6202 66.6988 18.7893 67.4085 18.0772C68.1183 17.3651 68.9415 16.8048 69.8783 16.3965C70.8152 15.9882 71.823 15.784 72.9018 15.784C73.9805 15.784 74.9931 15.9882 75.9394 16.3965C76.8856 16.8048 77.7136 17.3651 78.4234 18.0772C79.1331 18.7893 79.6914 19.6202 80.0983 20.5697C80.5052 21.5193 80.7087 22.5353 80.7087 23.6177C80.7087 24.7002 80.5052 25.7115 80.0983 26.6515C79.6914 27.5916 79.1331 28.4176 78.4234 29.1298C77.7136 29.8419 76.8856 30.4022 75.9394 30.8105C74.9931 31.2188 73.9805 31.4229 72.9018 31.4229ZM72.9018 17.0944C72.0122 17.0944 71.1748 17.2654 70.3893 17.6072C69.6039 17.949 68.9179 18.4143 68.3312 19.003C67.7445 19.5917 67.2808 20.2849 66.9401 21.0825C66.5994 21.8801 66.4291 22.7252 66.4291 23.6177C66.4291 24.5103 66.5994 25.3506 66.9401 26.1388C67.2808 26.9269 67.7445 27.6153 68.3312 28.204C68.9179 28.7927 69.6039 29.258 70.3893 29.5998C71.1748 29.9416 72.0122 30.1126 72.9018 30.1126C73.7913 30.1126 74.6335 29.9416 75.4284 29.5998C76.2232 29.258 76.914 28.7927 77.5007 28.204C78.0874 27.6153 78.5511 26.9269 78.8918 26.1388C79.2324 25.3506 79.4028 24.5103 79.4028 23.6177C79.4028 22.7252 79.2324 21.8801 78.8918 21.0825C78.5511 20.2849 78.0874 19.5917 77.5007 19.003C76.914 18.4143 76.2232 17.949 75.4284 17.6072C74.6335 17.2654 73.7913 17.0944 72.9018 17.0944ZM82.9798 23.6177V31.4229H84.2856V23.6177C84.2856 22.7252 84.456 21.8848 84.7966 21.0967C85.1373 20.3086 85.601 19.6202 86.1877 19.0315C86.7744 18.4428 87.4604 17.9775 88.2459 17.6357C89.0313 17.2938 89.8688 17.1229 90.7583 17.1229C91.6478 17.1229 92.4852 17.2938 93.2707 17.6357C94.0561 17.9775 94.7422 18.4428 95.3289 19.0315C95.9156 19.6202 96.3793 20.3086 96.7199 21.0967C97.0606 21.8848 97.2309 22.7252 97.2309 23.6177V31.4229H98.5368V23.6177C98.5368 22.5353 98.3333 21.524 97.9264 20.584C97.5195 19.644 96.9612 18.8179 96.2515 18.1057C95.5418 17.3935 94.7185 16.8333 93.7817 16.425C92.8449 16.0167 91.837 15.8126 90.7583 15.8126C89.6795 15.8126 88.6717 16.0167 87.7349 16.425C86.798 16.8333 85.9748 17.3935 85.265 18.1057C84.5553 18.8179 83.997 19.644 83.5901 20.584C83.1832 21.524 82.9798 22.5353 82.9798 23.6177ZM116.365 8.57708H115.087V19.2594C114.368 18.1959 113.446 17.3461 112.32 16.7099C111.193 16.0737 109.949 15.7556 108.586 15.7556C107.508 15.7556 106.495 15.9597 105.549 16.368C104.602 16.7763 103.775 17.3365 103.065 18.0487C102.355 18.7609 101.797 19.5917 101.39 20.5413C100.983 21.4908 100.779 22.5068 100.779 23.5893C100.779 24.6717 100.983 25.6877 101.39 26.6373C101.797 27.5868 102.355 28.4176 103.065 29.1298C103.775 29.8419 104.602 30.4022 105.549 30.8105C106.495 31.2188 107.508 31.4229 108.586 31.4229C109.608 31.4229 110.574 31.2377 111.482 30.8674C112.39 30.4971 113.19 29.9891 113.881 29.3434C114.572 28.6977 115.139 27.9381 115.584 27.0646C116.029 26.191 116.289 25.2509 116.365 24.2444V8.57708ZM108.586 30.1126C107.697 30.1126 106.855 29.9416 106.06 29.5998C105.265 29.258 104.574 28.7927 103.987 28.204C103.401 27.6153 102.937 26.9221 102.596 26.1245C102.256 25.3269 102.085 24.4818 102.085 23.5893C102.085 22.6967 102.256 21.8516 102.596 21.054C102.937 20.2564 103.401 19.5632 103.987 18.9745C104.574 18.3858 105.265 17.9205 106.06 17.5787C106.855 17.2368 107.697 17.0659 108.586 17.0659C109.476 17.0659 110.318 17.2368 111.113 17.5787C111.908 17.9205 112.599 18.3858 113.185 18.9745C113.772 19.5632 114.236 20.2564 114.576 21.054C114.917 21.8516 115.087 22.6967 115.087 23.5893C115.087 24.4818 114.917 25.3269 114.576 26.1245C114.236 26.9221 113.772 27.6153 113.185 28.204C112.599 28.7927 111.908 29.258 111.113 29.5998C110.318 29.9416 109.476 30.1126 108.586 30.1126ZM118.636 15.7556V31.4229H119.857V15.7556H118.636ZM137.713 8.57708H136.436V19.2594C135.717 18.1959 134.794 17.3461 133.668 16.7099C132.542 16.0737 131.297 15.7556 129.935 15.7556C128.856 15.7556 127.843 15.9597 126.897 16.368C125.951 16.7763 125.123 17.3365 124.413 18.0487C123.703 18.7609 123.145 19.5917 122.738 20.5413C122.331 21.4908 122.128 22.5068 122.128 23.5893C122.128 24.6717 122.331 25.6877 122.738 26.6373C123.145 27.5868 123.703 28.4176 124.413 29.1298C125.123 29.8419 125.951 30.4022 126.897 30.8105C127.843 31.2188 128.856 31.4229 129.935 31.4229C130.957 31.4229 131.922 31.2377 132.83 30.8674C133.739 30.4971 134.538 29.9891 135.229 29.3434C135.92 28.6977 136.488 27.9381 136.933 27.0646C137.377 26.191 137.638 25.2509 137.713 24.2444V8.57708ZM129.935 30.1126C129.045 30.1126 128.203 29.9416 127.408 29.5998C126.613 29.258 125.922 28.7927 125.336 28.204C124.749 27.6153 124.285 26.9221 123.945 26.1245C123.604 25.3269 123.434 24.4818 123.434 23.5893C123.434 22.6967 123.604 21.8516 123.945 21.054C124.285 20.2564 124.749 19.5632 125.336 18.9745C125.922 18.3858 126.613 17.9205 127.408 17.5787C128.203 17.2368 129.045 17.0659 129.935 17.0659C130.824 17.0659 131.666 17.2368 132.461 17.5787C133.256 17.9205 133.947 18.3858 134.534 18.9745C135.12 19.5632 135.584 20.2564 135.925 21.054C136.265 21.8516 136.436 22.6967 136.436 23.5893C136.436 24.4818 136.265 25.3269 135.925 26.1245C135.584 26.9221 135.12 27.6153 134.534 28.204C133.947 28.7927 133.256 29.258 132.461 29.5998C131.666 29.9416 130.824 30.1126 129.935 30.1126ZM154.264 22.9625L155.541 23.4468V31.4229H154.264V22.9625ZM147.763 31.4229C146.684 31.4229 145.676 31.2188 144.739 30.8105C143.803 30.4022 142.979 29.8419 142.27 29.1298C141.56 28.4176 141.002 27.5916 140.595 26.6515C140.188 25.7115 139.984 24.7002 139.984 23.6177C139.984 22.5353 140.188 21.5193 140.595 20.5697C141.002 19.6202 141.56 18.7893 142.27 18.0772C142.979 17.3651 143.803 16.8048 144.739 16.3965C145.676 15.9882 146.684 15.784 147.763 15.784C148.842 15.784 149.854 15.9882 150.8 16.3965C151.747 16.8048 152.575 17.3651 153.284 18.0772C153.994 18.7893 154.552 19.6202 154.959 20.5697C155.366 21.5193 155.57 22.5353 155.57 23.6177C155.57 24.7002 155.366 25.7115 154.959 26.6515C154.552 27.5916 153.994 28.4176 153.284 29.1298C152.575 29.8419 151.747 30.4022 150.8 30.8105C149.854 31.2188 148.842 31.4229 147.763 31.4229ZM147.763 17.0944C146.873 17.0944 146.036 17.2654 145.25 17.6072C144.465 17.949 143.779 18.4143 143.192 19.003C142.606 19.5917 142.142 20.2849 141.801 21.0825C141.461 21.8801 141.29 22.7252 141.29 23.6177C141.29 24.5103 141.461 25.3506 141.801 26.1388C142.142 26.9269 142.606 27.6153 143.192 28.204C143.779 28.7927 144.465 29.258 145.25 29.5998C146.036 29.9416 146.873 30.1126 147.763 30.1126C148.652 30.1126 149.495 29.9416 150.289 29.5998C151.084 29.258 151.775 28.7927 152.362 28.204C152.949 27.6153 153.412 26.9269 153.753 26.1388C154.094 25.3506 154.264 24.5103 154.264 23.6177C154.264 22.7252 154.094 21.8801 153.753 21.0825C153.412 20.2849 152.949 19.5917 152.362 19.003C151.775 18.4143 151.084 17.949 150.289 17.6072C149.495 17.2654 148.652 17.0944 147.763 17.0944ZM159.147 15.7271H157.841V23.5608C157.841 24.6432 158.049 25.6592 158.465 26.6088C158.882 27.5583 159.445 28.3892 160.155 29.1013C160.864 29.8135 161.692 30.3784 162.639 30.7962C163.585 31.214 164.597 31.4229 165.676 31.4229H166.329V30.1126H165.676C164.768 30.1126 163.921 29.9416 163.135 29.5998C162.35 29.258 161.659 28.7879 161.063 28.1897C160.467 27.5916 159.998 26.8984 159.658 26.1103C159.317 25.3222 159.147 24.4723 159.147 23.5608V15.7271ZM162.184 24.2444H166.329V22.9056H162.184V24.2444ZM169.991 31.3944V29.6568H168.6V31.3944H169.991ZM186.513 22.9625L187.791 23.4468V31.4229H186.513V22.9625ZM180.012 31.4229C178.934 31.4229 177.926 31.2188 176.989 30.8105C176.052 30.4022 175.229 29.8419 174.519 29.1298C173.81 28.4176 173.251 27.5916 172.844 26.6515C172.437 25.7115 172.234 24.7002 172.234 23.6177C172.234 22.5353 172.437 21.5193 172.844 20.5697C173.251 19.6202 173.81 18.7893 174.519 18.0772C175.229 17.3651 176.052 16.8048 176.989 16.3965C177.926 15.9882 178.934 15.784 180.012 15.784C181.091 15.784 182.104 15.9882 183.05 16.3965C183.996 16.8048 184.824 17.3651 185.534 18.0772C186.244 18.7893 186.802 19.6202 187.209 20.5697C187.616 21.5193 187.819 22.5353 187.819 23.6177C187.819 24.7002 187.616 25.7115 187.209 26.6515C186.802 27.5916 186.244 28.4176 185.534 29.1298C184.824 29.8419 183.996 30.4022 183.05 30.8105C182.104 31.2188 181.091 31.4229 180.012 31.4229ZM180.012 17.0944C179.123 17.0944 178.285 17.2654 177.5 17.6072C176.715 17.949 176.029 18.4143 175.442 19.003C174.855 19.5917 174.391 20.2849 174.051 21.0825C173.71 21.8801 173.54 22.7252 173.54 23.6177C173.54 24.5103 173.71 25.3506 174.051 26.1388C174.391 26.9269 174.855 27.6153 175.442 28.204C176.029 28.7927 176.715 29.258 177.5 29.5998C178.285 29.9416 179.123 30.1126 180.012 30.1126C180.902 30.1126 181.744 29.9416 182.539 29.5998C183.334 29.258 184.025 28.7927 184.611 28.204C185.198 27.6153 185.662 26.9269 186.002 26.1388C186.343 25.3506 186.513 24.5103 186.513 23.6177C186.513 22.7252 186.343 21.8801 186.002 21.0825C185.662 20.2849 185.198 19.5917 184.611 19.003C184.025 18.4143 183.334 17.949 182.539 17.6072C181.744 17.2654 180.902 17.0944 180.012 17.0944ZM190.09 15.7556V31.4229H191.311V15.7556H190.09Z" fill="#242424" stroke="#242424" stroke-width="0.9375" stroke-miterlimit="22.9256" stroke-linejoin="round"/>
        <path d="M47.21 23.5608C47.21 24.6432 47.4181 25.6592 47.8345 26.6088C48.2509 27.5583 48.8139 28.3892 49.5236 29.1013C50.2333 29.8135 51.0614 30.3784 52.0076 30.7962C52.9539 31.214 53.9665 31.4229 55.0453 31.4229H62.8522V30.1126H55.0453C54.1368 30.1126 53.2899 29.9416 52.5044 29.5998C51.719 29.258 51.0282 28.7879 50.4321 28.1897C49.8359 27.5916 49.3675 26.8984 49.0268 26.1103C48.6862 25.3222 48.5158 24.4723 48.5158 23.5608C48.5158 22.6682 48.6862 21.8231 49.0268 21.0255C49.3675 20.2279 49.8359 19.5347 50.4321 18.946C51.0282 18.3573 51.719 17.892 52.5044 17.5502C53.2899 17.2084 54.1368 17.0375 55.0453 17.0375H62.8522V15.7271H55.0453C53.9665 15.7271 52.9539 15.9312 52.0076 16.3395C51.0614 16.7478 50.2333 17.3081 49.5236 18.0202C48.8139 18.7324 48.2509 19.5632 47.8345 20.5128C47.4181 21.4623 47.21 22.4783 47.21 23.5608ZM79.4028 22.9625L80.6803 23.4468V31.4229H79.4028V22.9625ZM72.9018 31.4229C71.823 31.4229 70.8152 31.2188 69.8783 30.8105C68.9415 30.4022 68.1183 29.8419 67.4085 29.1298C66.6988 28.4176 66.1405 27.5916 65.7336 26.6515C65.3267 25.7115 65.1232 24.7002 65.1232 23.6177C65.1232 22.5353 65.3267 21.5193 65.7336 20.5697C66.1405 19.6202 66.6988 18.7893 67.4085 18.0772C68.1183 17.3651 68.9415 16.8048 69.8783 16.3965C70.8152 15.9882 71.823 15.784 72.9018 15.784C73.9805 15.784 74.9931 15.9882 75.9394 16.3965C76.8856 16.8048 77.7136 17.3651 78.4234 18.0772C79.1331 18.7893 79.6914 19.6202 80.0983 20.5697C80.5052 21.5193 80.7087 22.5353 80.7087 23.6177C80.7087 24.7002 80.5052 25.7115 80.0983 26.6515C79.6914 27.5916 79.1331 28.4176 78.4234 29.1298C77.7136 29.8419 76.8856 30.4022 75.9394 30.8105C74.9931 31.2188 73.9805 31.4229 72.9018 31.4229ZM72.9018 17.0944C72.0122 17.0944 71.1748 17.2654 70.3893 17.6072C69.6039 17.949 68.9179 18.4143 68.3312 19.003C67.7445 19.5917 67.2808 20.2849 66.9401 21.0825C66.5994 21.8801 66.4291 22.7252 66.4291 23.6177C66.4291 24.5103 66.5994 25.3506 66.9401 26.1388C67.2808 26.9269 67.7445 27.6153 68.3312 28.204C68.9179 28.7927 69.6039 29.258 70.3893 29.5998C71.1748 29.9416 72.0122 30.1126 72.9018 30.1126C73.7913 30.1126 74.6335 29.9416 75.4284 29.5998C76.2232 29.258 76.914 28.7927 77.5007 28.204C78.0874 27.6153 78.5511 26.9269 78.8918 26.1388C79.2324 25.3506 79.4028 24.5103 79.4028 23.6177C79.4028 22.7252 79.2324 21.8801 78.8918 21.0825C78.5511 20.2849 78.0874 19.5917 77.5007 19.003C76.914 18.4143 76.2232 17.949 75.4284 17.6072C74.6335 17.2654 73.7913 17.0944 72.9018 17.0944ZM82.9798 23.6177V31.4229H84.2856V23.6177C84.2856 22.7252 84.456 21.8848 84.7966 21.0967C85.1373 20.3086 85.601 19.6202 86.1877 19.0315C86.7744 18.4428 87.4604 17.9775 88.2459 17.6357C89.0313 17.2938 89.8688 17.1229 90.7583 17.1229C91.6478 17.1229 92.4852 17.2938 93.2707 17.6357C94.0561 17.9775 94.7422 18.4428 95.3289 19.0315C95.9156 19.6202 96.3793 20.3086 96.7199 21.0967C97.0606 21.8848 97.2309 22.7252 97.2309 23.6177V31.4229H98.5368V23.6177C98.5368 22.5353 98.3333 21.524 97.9264 20.584C97.5195 19.644 96.9612 18.8179 96.2515 18.1057C95.5418 17.3935 94.7185 16.8333 93.7817 16.425C92.8449 16.0167 91.837 15.8126 90.7583 15.8126C89.6795 15.8126 88.6717 16.0167 87.7349 16.425C86.798 16.8333 85.9748 17.3935 85.265 18.1057C84.5553 18.8179 83.997 19.644 83.5901 20.584C83.1832 21.524 82.9798 22.5353 82.9798 23.6177ZM116.365 8.57708H115.087V19.2594C114.368 18.1959 113.446 17.3461 112.32 16.7099C111.193 16.0737 109.949 15.7556 108.586 15.7556C107.508 15.7556 106.495 15.9597 105.549 16.368C104.602 16.7763 103.775 17.3365 103.065 18.0487C102.355 18.7609 101.797 19.5917 101.39 20.5413C100.983 21.4908 100.779 22.5068 100.779 23.5893C100.779 24.6717 100.983 25.6877 101.39 26.6373C101.797 27.5868 102.355 28.4176 103.065 29.1298C103.775 29.8419 104.602 30.4022 105.549 30.8105C106.495 31.2188 107.508 31.4229 108.586 31.4229C109.608 31.4229 110.574 31.2377 111.482 30.8674C112.39 30.4971 113.19 29.9891 113.881 29.3434C114.572 28.6977 115.139 27.9381 115.584 27.0646C116.029 26.191 116.289 25.2509 116.365 24.2444V8.57708ZM108.586 30.1126C107.697 30.1126 106.855 29.9416 106.06 29.5998C105.265 29.258 104.574 28.7927 103.987 28.204C103.401 27.6153 102.937 26.9221 102.596 26.1245C102.256 25.3269 102.085 24.4818 102.085 23.5893C102.085 22.6967 102.256 21.8516 102.596 21.054C102.937 20.2564 103.401 19.5632 103.987 18.9745C104.574 18.3858 105.265 17.9205 106.06 17.5787C106.855 17.2368 107.697 17.0659 108.586 17.0659C109.476 17.0659 110.318 17.2368 111.113 17.5787C111.908 17.9205 112.599 18.3858 113.185 18.9745C113.772 19.5632 114.236 20.2564 114.576 21.054C114.917 21.8516 115.087 22.6967 115.087 23.5893C115.087 24.4818 114.917 25.3269 114.576 26.1245C114.236 26.9221 113.772 27.6153 113.185 28.204C112.599 28.7927 111.908 29.258 111.113 29.5998C110.318 29.9416 109.476 30.1126 108.586 30.1126ZM118.636 15.7556V31.4229H119.857V15.7556H118.636ZM137.713 8.57708H136.436V19.2594C135.717 18.1959 134.794 17.3461 133.668 16.7099C132.542 16.0737 131.297 15.7556 129.935 15.7556C128.856 15.7556 127.843 15.9597 126.897 16.368C125.951 16.7763 125.123 17.3365 124.413 18.0487C123.703 18.7609 123.145 19.5917 122.738 20.5413C122.331 21.4908 122.128 22.5068 122.128 23.5893C122.128 24.6717 122.331 25.6877 122.738 26.6373C123.145 27.5868 123.703 28.4176 124.413 29.1298C125.123 29.8419 125.951 30.4022 126.897 30.8105C127.843 31.2188 128.856 31.4229 129.935 31.4229C130.957 31.4229 131.922 31.2377 132.83 30.8674C133.739 30.4971 134.538 29.9891 135.229 29.3434C135.92 28.6977 136.488 27.9381 136.933 27.0646C137.377 26.191 137.638 25.2509 137.713 24.2444V8.57708ZM129.935 30.1126C129.045 30.1126 128.203 29.9416 127.408 29.5998C126.613 29.258 125.922 28.7927 125.336 28.204C124.749 27.6153 124.285 26.9221 123.945 26.1245C123.604 25.3269 123.434 24.4818 123.434 23.5893C123.434 22.6967 123.604 21.8516 123.945 21.054C124.285 20.2564 124.749 19.5632 125.336 18.9745C125.922 18.3858 126.613 17.9205 127.408 17.5787C128.203 17.2368 129.045 17.0659 129.935 17.0659C130.824 17.0659 131.666 17.2368 132.461 17.5787C133.256 17.9205 133.947 18.3858 134.534 18.9745C135.12 19.5632 135.584 20.2564 135.925 21.054C136.265 21.8516 136.436 22.6967 136.436 23.5893C136.436 24.4818 136.265 25.3269 135.925 26.1245C135.584 26.9221 135.12 27.6153 134.534 28.204C133.947 28.7927 133.256 29.258 132.461 29.5998C131.666 29.9416 130.824 30.1126 129.935 30.1126ZM154.264 22.9625L155.541 23.4468V31.4229H154.264V22.9625ZM147.763 31.4229C146.684 31.4229 145.676 31.2188 144.739 30.8105C143.803 30.4022 142.979 29.8419 142.27 29.1298C141.56 28.4176 141.002 27.5916 140.595 26.6515C140.188 25.7115 139.984 24.7002 139.984 23.6177C139.984 22.5353 140.188 21.5193 140.595 20.5697C141.002 19.6202 141.56 18.7893 142.27 18.0772C142.979 17.3651 143.803 16.8048 144.739 16.3965C145.676 15.9882 146.684 15.784 147.763 15.784C148.842 15.784 149.854 15.9882 150.8 16.3965C151.747 16.8048 152.575 17.3651 153.284 18.0772C153.994 18.7893 154.552 19.6202 154.959 20.5697C155.366 21.5193 155.57 22.5353 155.57 23.6177C155.57 24.7002 155.366 25.7115 154.959 26.6515C154.552 27.5916 153.994 28.4176 153.284 29.1298C152.575 29.8419 151.747 30.4022 150.8 30.8105C149.854 31.2188 148.842 31.4229 147.763 31.4229ZM147.763 17.0944C146.873 17.0944 146.036 17.2654 145.25 17.6072C144.465 17.949 143.779 18.4143 143.192 19.003C142.606 19.5917 142.142 20.2849 141.801 21.0825C141.461 21.8801 141.29 22.7252 141.29 23.6177C141.29 24.5103 141.461 25.3506 141.801 26.1388C142.142 26.9269 142.606 27.6153 143.192 28.204C143.779 28.7927 144.465 29.258 145.25 29.5998C146.036 29.9416 146.873 30.1126 147.763 30.1126C148.652 30.1126 149.495 29.9416 150.289 29.5998C151.084 29.258 151.775 28.7927 152.362 28.204C152.949 27.6153 153.412 26.9269 153.753 26.1388C154.094 25.3506 154.264 24.5103 154.264 23.6177C154.264 22.7252 154.094 21.8801 153.753 21.0825C153.412 20.2849 152.949 19.5917 152.362 19.003C151.775 18.4143 151.084 17.949 150.289 17.6072C149.495 17.2654 148.652 17.0944 147.763 17.0944ZM159.147 15.7271H157.841V23.5608C157.841 24.6432 158.049 25.6592 158.465 26.6088C158.882 27.5583 159.445 28.3892 160.155 29.1013C160.864 29.8135 161.692 30.3784 162.639 30.7962C163.585 31.214 164.597 31.4229 165.676 31.4229H166.329V30.1126H165.676C164.768 30.1126 163.921 29.9416 163.135 29.5998C162.35 29.258 161.659 28.7879 161.063 28.1897C160.467 27.5916 159.998 26.8984 159.658 26.1103C159.317 25.3222 159.147 24.4723 159.147 23.5608V15.7271ZM162.184 24.2444H166.329V22.9056H162.184V24.2444ZM169.991 31.3944V29.6568H168.6V31.3944H169.991ZM186.513 22.9625L187.791 23.4468V31.4229H186.513V22.9625ZM180.012 31.4229C178.934 31.4229 177.926 31.2188 176.989 30.8105C176.052 30.4022 175.229 29.8419 174.519 29.1298C173.81 28.4176 173.251 27.5916 172.844 26.6515C172.437 25.7115 172.234 24.7002 172.234 23.6177C172.234 22.5353 172.437 21.5193 172.844 20.5697C173.251 19.6202 173.81 18.7893 174.519 18.0772C175.229 17.3651 176.052 16.8048 176.989 16.3965C177.926 15.9882 178.934 15.784 180.012 15.784C181.091 15.784 182.104 15.9882 183.05 16.3965C183.996 16.8048 184.824 17.3651 185.534 18.0772C186.244 18.7893 186.802 19.6202 187.209 20.5697C187.616 21.5193 187.819 22.5353 187.819 23.6177C187.819 24.7002 187.616 25.7115 187.209 26.6515C186.802 27.5916 186.244 28.4176 185.534 29.1298C184.824 29.8419 183.996 30.4022 183.05 30.8105C182.104 31.2188 181.091 31.4229 180.012 31.4229ZM180.012 17.0944C179.123 17.0944 178.285 17.2654 177.5 17.6072C176.715 17.949 176.029 18.4143 175.442 19.003C174.855 19.5917 174.391 20.2849 174.051 21.0825C173.71 21.8801 173.54 22.7252 173.54 23.6177C173.54 24.5103 173.71 25.3506 174.051 26.1388C174.391 26.9269 174.855 27.6153 175.442 28.204C176.029 28.7927 176.715 29.258 177.5 29.5998C178.285 29.9416 179.123 30.1126 180.012 30.1126C180.902 30.1126 181.744 29.9416 182.539 29.5998C183.334 29.258 184.025 28.7927 184.611 28.204C185.198 27.6153 185.662 26.9269 186.002 26.1388C186.343 25.3506 186.513 24.5103 186.513 23.6177C186.513 22.7252 186.343 21.8801 186.002 21.0825C185.662 20.2849 185.198 19.5917 184.611 19.003C184.025 18.4143 183.334 17.949 182.539 17.6072C181.744 17.2654 180.902 17.0944 180.012 17.0944ZM190.09 15.7556V31.4229H191.311V15.7556H190.09Z" fill="#242424" stroke="#242424" stroke-width="0.9375" stroke-miterlimit="22.9256" stroke-linejoin="round"/>
    </g>
    <defs>
        <clipPath id="clip0_6269_1876">
            <rect width="41.6327" height="40" fill="white"/>
        </clipPath>
        <clipPath id="clip1_6269_1876">
            <rect width="145.255" height="24" fill="white" transform="translate(46.6328 8)"/>
        </clipPath>
    </defs>
</svg>